<mxfile host="app.diagrams.net" modified="2020-07-15T06:16:45.150Z" agent="5.0 (Macintosh; Intel Mac OS X 10_15_5) AppleWebKit/537.36 (KHTML, like Gecko) Chrome/83.0.4103.116 Safari/537.36" etag="txE55iz01ircgFcGkKtp" version="13.4.2" type="github">
  <diagram id="TerZBy7_04UeNxA55mmT" name="Page-1">
    <mxGraphModel dx="2066" dy="1105" grid="1" gridSize="10" guides="1" tooltips="1" connect="1" arrows="1" fold="1" page="1" pageScale="1" pageWidth="827" pageHeight="1169" math="0" shadow="0">
      <root>
        <mxCell id="0" />
        <mxCell id="1" parent="0" />
        <mxCell id="kVEV9F9p22ZjEcM7WHKv-19" style="edgeStyle=orthogonalEdgeStyle;curved=1;rounded=0;orthogonalLoop=1;jettySize=auto;html=1;entryX=0.5;entryY=0;entryDx=0;entryDy=0;strokeWidth=3;" edge="1" parent="1" source="kVEV9F9p22ZjEcM7WHKv-1" target="kVEV9F9p22ZjEcM7WHKv-2">
          <mxGeometry relative="1" as="geometry" />
        </mxCell>
        <mxCell id="kVEV9F9p22ZjEcM7WHKv-1" value="Power on Reset" style="rounded=0;whiteSpace=wrap;html=1;fillColor=#dae8fc;strokeColor=#6c8ebf;" vertex="1" parent="1">
          <mxGeometry x="460" y="310" width="120" height="40" as="geometry" />
        </mxCell>
        <mxCell id="kVEV9F9p22ZjEcM7WHKv-21" style="edgeStyle=orthogonalEdgeStyle;curved=1;rounded=0;orthogonalLoop=1;jettySize=auto;html=1;entryX=0.5;entryY=0;entryDx=0;entryDy=0;strokeWidth=3;" edge="1" parent="1" source="kVEV9F9p22ZjEcM7WHKv-2" target="kVEV9F9p22ZjEcM7WHKv-20">
          <mxGeometry relative="1" as="geometry" />
        </mxCell>
        <mxCell id="kVEV9F9p22ZjEcM7WHKv-2" value="Every register initialized to 0 except&lt;br&gt;CS=0xf000, IP= 0xfff0&lt;br&gt;" style="rounded=0;whiteSpace=wrap;html=1;fillColor=#dae8fc;strokeColor=#6c8ebf;" vertex="1" parent="1">
          <mxGeometry x="460" y="380" width="120" height="80" as="geometry" />
        </mxCell>
        <mxCell id="kVEV9F9p22ZjEcM7WHKv-3" value="" style="rounded=0;whiteSpace=wrap;html=1;fillColor=#d5e8d4;strokeColor=#82b366;" vertex="1" parent="1">
          <mxGeometry x="160" y="520" width="120" height="320" as="geometry" />
        </mxCell>
        <mxCell id="kVEV9F9p22ZjEcM7WHKv-14" style="edgeStyle=orthogonalEdgeStyle;rounded=0;orthogonalLoop=1;jettySize=auto;html=1;entryX=1.008;entryY=0.643;entryDx=0;entryDy=0;entryPerimeter=0;curved=1;exitX=1;exitY=0.5;exitDx=0;exitDy=0;fillColor=#f8cecc;strokeColor=#b85450;strokeWidth=3;" edge="1" parent="1" source="kVEV9F9p22ZjEcM7WHKv-4" target="kVEV9F9p22ZjEcM7WHKv-5">
          <mxGeometry relative="1" as="geometry" />
        </mxCell>
        <mxCell id="kVEV9F9p22ZjEcM7WHKv-4" value="" style="rounded=0;whiteSpace=wrap;html=1;gradientColor=#b3b3b3;fillColor=#f5f5f5;strokeColor=#666666;" vertex="1" parent="1">
          <mxGeometry x="160" y="710" width="120" height="10" as="geometry" />
        </mxCell>
        <mxCell id="kVEV9F9p22ZjEcM7WHKv-5" value="" style="rounded=0;whiteSpace=wrap;html=1;fillColor=#e1d5e7;strokeColor=#9673a6;" vertex="1" parent="1">
          <mxGeometry x="160" y="720" width="120" height="70" as="geometry" />
        </mxCell>
        <mxCell id="kVEV9F9p22ZjEcM7WHKv-6" value="" style="shape=curlyBracket;whiteSpace=wrap;html=1;rounded=1;" vertex="1" parent="1">
          <mxGeometry x="140" y="520" width="20" height="190" as="geometry" />
        </mxCell>
        <mxCell id="2" value="&lt;font style=&quot;font-size: 16px&quot;&gt;Inaccessible&lt;br&gt;memory&lt;/font&gt;" style="text;html=1;align=center;verticalAlign=middle;resizable=0;points=[];autosize=1;" vertex="1" parent="1">
          <mxGeometry x="40" y="595" width="100" height="40" as="geometry" />
        </mxCell>
        <mxCell id="kVEV9F9p22ZjEcM7WHKv-7" value="&lt;font style=&quot;font-size: 14px&quot;&gt;0x100000&lt;/font&gt;" style="text;html=1;align=center;verticalAlign=middle;resizable=0;points=[];autosize=1;" vertex="1" parent="1">
          <mxGeometry x="285" y="695" width="80" height="20" as="geometry" />
        </mxCell>
        <mxCell id="kVEV9F9p22ZjEcM7WHKv-8" value="&lt;font style=&quot;font-size: 14px&quot;&gt;0xFFFF0&lt;/font&gt;" style="text;html=1;align=center;verticalAlign=middle;resizable=0;points=[];autosize=1;" vertex="1" parent="1">
          <mxGeometry x="290" y="715" width="70" height="20" as="geometry" />
        </mxCell>
        <mxCell id="kVEV9F9p22ZjEcM7WHKv-9" value="&lt;font style=&quot;font-size: 14px&quot;&gt;0xF0000&lt;/font&gt;" style="text;html=1;align=center;verticalAlign=middle;resizable=0;points=[];autosize=1;" vertex="1" parent="1">
          <mxGeometry x="290" y="770" width="70" height="20" as="geometry" />
        </mxCell>
        <mxCell id="kVEV9F9p22ZjEcM7WHKv-10" value="" style="endArrow=classic;html=1;entryX=0.092;entryY=-0.057;entryDx=0;entryDy=0;entryPerimeter=0;" edge="1" parent="1" target="kVEV9F9p22ZjEcM7WHKv-5">
          <mxGeometry width="50" height="50" relative="1" as="geometry">
            <mxPoint x="100" y="700" as="sourcePoint" />
            <mxPoint x="110" y="640" as="targetPoint" />
          </mxGeometry>
        </mxCell>
        <mxCell id="kVEV9F9p22ZjEcM7WHKv-11" value="&lt;font style=&quot;font-size: 14px&quot;&gt;&amp;nbsp;First instructions&lt;br&gt;(Jump to rom BIOS)&lt;/font&gt;" style="text;html=1;align=center;verticalAlign=middle;resizable=0;points=[];autosize=1;" vertex="1" parent="1">
          <mxGeometry y="655" width="140" height="40" as="geometry" />
        </mxCell>
        <mxCell id="kVEV9F9p22ZjEcM7WHKv-12" value="" style="shape=curlyBracket;whiteSpace=wrap;html=1;rounded=1;" vertex="1" parent="1">
          <mxGeometry x="140" y="720" width="20" height="70" as="geometry" />
        </mxCell>
        <mxCell id="kVEV9F9p22ZjEcM7WHKv-13" value="&lt;font style=&quot;font-size: 16px&quot;&gt;BIOS&lt;/font&gt;" style="text;html=1;align=center;verticalAlign=middle;resizable=0;points=[];autosize=1;" vertex="1" parent="1">
          <mxGeometry x="90" y="745" width="50" height="20" as="geometry" />
        </mxCell>
        <mxCell id="kVEV9F9p22ZjEcM7WHKv-15" value="0" style="text;html=1;align=center;verticalAlign=middle;resizable=0;points=[];autosize=1;" vertex="1" parent="1">
          <mxGeometry x="300" y="830" width="20" height="20" as="geometry" />
        </mxCell>
        <mxCell id="kVEV9F9p22ZjEcM7WHKv-18" value="&lt;font style=&quot;font-size: 18px&quot;&gt;RAM&lt;/font&gt;" style="text;html=1;align=center;verticalAlign=middle;resizable=0;points=[];autosize=1;" vertex="1" parent="1">
          <mxGeometry x="190" y="860" width="60" height="20" as="geometry" />
        </mxCell>
        <mxCell id="kVEV9F9p22ZjEcM7WHKv-25" style="edgeStyle=orthogonalEdgeStyle;curved=1;rounded=0;orthogonalLoop=1;jettySize=auto;html=1;entryX=0.5;entryY=0;entryDx=0;entryDy=0;strokeWidth=3;" edge="1" parent="1" source="kVEV9F9p22ZjEcM7WHKv-20" target="kVEV9F9p22ZjEcM7WHKv-22">
          <mxGeometry relative="1" as="geometry" />
        </mxCell>
        <mxCell id="kVEV9F9p22ZjEcM7WHKv-20" value="BIOS" style="rounded=0;whiteSpace=wrap;html=1;fillColor=#dae8fc;strokeColor=#6c8ebf;" vertex="1" parent="1">
          <mxGeometry x="460" y="500" width="120" height="50" as="geometry" />
        </mxCell>
        <mxCell id="kVEV9F9p22ZjEcM7WHKv-26" style="edgeStyle=orthogonalEdgeStyle;curved=1;rounded=0;orthogonalLoop=1;jettySize=auto;html=1;entryX=0.5;entryY=0;entryDx=0;entryDy=0;strokeWidth=3;" edge="1" parent="1" source="kVEV9F9p22ZjEcM7WHKv-22" target="kVEV9F9p22ZjEcM7WHKv-23">
          <mxGeometry relative="1" as="geometry" />
        </mxCell>
        <mxCell id="kVEV9F9p22ZjEcM7WHKv-22" value="MBR Execution&lt;span style=&quot;color: rgba(0 , 0 , 0 , 0) ; font-family: monospace ; font-size: 0px&quot;&gt;%3CmxGraphModel%3E%3Croot%3E%3CmxCell%20id%3D%220%22%2F%3E%3CmxCell%20id%3D%221%22%20parent%3D%220%22%2F%3E%3CmxCell%20id%3D%222%22%20value%3D%22%26lt%3Bfont%20style%3D%26quot%3Bfont-size%3A%2014px%26quot%3B%26gt%3B0xFFFF0%26lt%3B%2Ffont%26gt%3B%22%20style%3D%22text%3Bhtml%3D1%3Balign%3Dcenter%3BverticalAlign%3Dmiddle%3Bresizable%3D0%3Bpoints%3D%5B%5D%3Bautosize%3D1%3B%22%20vertex%3D%221%22%20parent%3D%221%22%3E%3CmxGeometry%20x%3D%22290%22%20y%3D%22710%22%20width%3D%2270%22%20height%3D%2220%22%20as%3D%22geometry%22%2F%3E%3C%2FmxCell%3E%3C%2Froot%3E%3C%2FmxGraphModel%3E&lt;/span&gt;" style="rounded=0;whiteSpace=wrap;html=1;fillColor=#dae8fc;strokeColor=#6c8ebf;" vertex="1" parent="1">
          <mxGeometry x="460" y="595" width="120" height="45" as="geometry" />
        </mxCell>
        <mxCell id="kVEV9F9p22ZjEcM7WHKv-27" style="edgeStyle=orthogonalEdgeStyle;curved=1;rounded=0;orthogonalLoop=1;jettySize=auto;html=1;entryX=0.5;entryY=0;entryDx=0;entryDy=0;strokeWidth=3;" edge="1" parent="1" source="kVEV9F9p22ZjEcM7WHKv-23" target="kVEV9F9p22ZjEcM7WHKv-24">
          <mxGeometry relative="1" as="geometry" />
        </mxCell>
        <mxCell id="kVEV9F9p22ZjEcM7WHKv-23" value="Bootloader" style="rounded=0;whiteSpace=wrap;html=1;fillColor=#dae8fc;strokeColor=#6c8ebf;" vertex="1" parent="1">
          <mxGeometry x="460" y="675" width="120" height="45" as="geometry" />
        </mxCell>
        <mxCell id="kVEV9F9p22ZjEcM7WHKv-24" value="OS" style="rounded=0;whiteSpace=wrap;html=1;fillColor=#dae8fc;strokeColor=#6c8ebf;" vertex="1" parent="1">
          <mxGeometry x="460" y="757.5" width="120" height="45" as="geometry" />
        </mxCell>
      </root>
    </mxGraphModel>
  </diagram>
</mxfile>
